<mxfile host="app.diagrams.net" modified="2021-07-01T05:55:05.979Z" agent="5.0 (X11; Linux x86_64) AppleWebKit/537.36 (KHTML, like Gecko) Chrome/91.0.4472.114 Safari/537.36" etag="f-pv_szMQq0TqffIbQ3i" version="14.8.3" type="github">
  <diagram id="X79nRQAjbg-QzMQPorSG" name="Page-1">
    <mxGraphModel dx="808" dy="522" grid="1" gridSize="10" guides="1" tooltips="1" connect="1" arrows="1" fold="1" page="1" pageScale="1" pageWidth="850" pageHeight="1100" math="0" shadow="0">
      <root>
        <mxCell id="0" />
        <mxCell id="1" parent="0" />
        <mxCell id="H8q-ksh3ANIPmMwhaufp-1" value="Administrator" style="shape=umlActor;verticalLabelPosition=bottom;verticalAlign=top;html=1;outlineConnect=0;" vertex="1" parent="1">
          <mxGeometry x="50" y="60" width="30" height="75" as="geometry" />
        </mxCell>
        <mxCell id="H8q-ksh3ANIPmMwhaufp-2" value="" style="endArrow=none;html=1;exitX=1;exitY=0.3333333333333333;exitDx=0;exitDy=0;exitPerimeter=0;entryX=0;entryY=0.5;entryDx=0;entryDy=0;" edge="1" parent="1" source="H8q-ksh3ANIPmMwhaufp-1" target="H8q-ksh3ANIPmMwhaufp-3">
          <mxGeometry width="50" height="50" relative="1" as="geometry">
            <mxPoint x="80" y="80" as="sourcePoint" />
            <mxPoint x="140" y="40" as="targetPoint" />
          </mxGeometry>
        </mxCell>
        <mxCell id="H8q-ksh3ANIPmMwhaufp-3" value="Set up Project" style="ellipse;whiteSpace=wrap;html=1;" vertex="1" parent="1">
          <mxGeometry x="180" y="10" width="120" height="30" as="geometry" />
        </mxCell>
        <mxCell id="H8q-ksh3ANIPmMwhaufp-4" value="Manage task/jobs" style="ellipse;whiteSpace=wrap;html=1;" vertex="1" parent="1">
          <mxGeometry x="180" y="50" width="120" height="30" as="geometry" />
        </mxCell>
        <mxCell id="H8q-ksh3ANIPmMwhaufp-5" value="Create Customer" style="ellipse;whiteSpace=wrap;html=1;" vertex="1" parent="1">
          <mxGeometry x="180" y="90" width="120" height="30" as="geometry" />
        </mxCell>
        <mxCell id="H8q-ksh3ANIPmMwhaufp-6" value="Create Team" style="ellipse;whiteSpace=wrap;html=1;" vertex="1" parent="1">
          <mxGeometry x="180" y="135" width="120" height="30" as="geometry" />
        </mxCell>
        <mxCell id="H8q-ksh3ANIPmMwhaufp-7" value="Track project progress" style="ellipse;whiteSpace=wrap;html=1;" vertex="1" parent="1">
          <mxGeometry x="180" y="180" width="130" height="30" as="geometry" />
        </mxCell>
        <mxCell id="H8q-ksh3ANIPmMwhaufp-8" value="" style="endArrow=none;html=1;entryX=0;entryY=0.5;entryDx=0;entryDy=0;exitX=1;exitY=0.3333333333333333;exitDx=0;exitDy=0;exitPerimeter=0;" edge="1" parent="1" source="H8q-ksh3ANIPmMwhaufp-1" target="H8q-ksh3ANIPmMwhaufp-4">
          <mxGeometry width="50" height="50" relative="1" as="geometry">
            <mxPoint x="90" y="80" as="sourcePoint" />
            <mxPoint x="180" y="60" as="targetPoint" />
          </mxGeometry>
        </mxCell>
        <mxCell id="H8q-ksh3ANIPmMwhaufp-9" value="Manage subtasks" style="ellipse;whiteSpace=wrap;html=1;" vertex="1" parent="1">
          <mxGeometry x="185" y="257.5" width="120" height="35" as="geometry" />
        </mxCell>
        <mxCell id="H8q-ksh3ANIPmMwhaufp-10" value="Team Leader" style="shape=umlActor;verticalLabelPosition=bottom;verticalAlign=top;html=1;outlineConnect=0;" vertex="1" parent="1">
          <mxGeometry x="50" y="255" width="30" height="60" as="geometry" />
        </mxCell>
        <mxCell id="H8q-ksh3ANIPmMwhaufp-11" value="" style="endArrow=none;html=1;exitX=1;exitY=0.3333333333333333;exitDx=0;exitDy=0;exitPerimeter=0;" edge="1" parent="1" source="H8q-ksh3ANIPmMwhaufp-10" target="H8q-ksh3ANIPmMwhaufp-9">
          <mxGeometry width="50" height="50" relative="1" as="geometry">
            <mxPoint x="110" y="290" as="sourcePoint" />
            <mxPoint x="170" y="273" as="targetPoint" />
          </mxGeometry>
        </mxCell>
        <mxCell id="H8q-ksh3ANIPmMwhaufp-12" value="Customer" style="shape=umlActor;verticalLabelPosition=bottom;verticalAlign=top;html=1;outlineConnect=0;" vertex="1" parent="1">
          <mxGeometry x="50" y="370" width="30" height="60" as="geometry" />
        </mxCell>
        <mxCell id="H8q-ksh3ANIPmMwhaufp-13" value="View project structure and progress" style="ellipse;whiteSpace=wrap;html=1;" vertex="1" parent="1">
          <mxGeometry x="180" y="364" width="160" height="50" as="geometry" />
        </mxCell>
        <mxCell id="H8q-ksh3ANIPmMwhaufp-14" value="" style="endArrow=none;html=1;exitX=1;exitY=0.3333333333333333;exitDx=0;exitDy=0;exitPerimeter=0;entryX=0;entryY=0.5;entryDx=0;entryDy=0;" edge="1" parent="1" source="H8q-ksh3ANIPmMwhaufp-1" target="H8q-ksh3ANIPmMwhaufp-5">
          <mxGeometry width="50" height="50" relative="1" as="geometry">
            <mxPoint x="90" y="90" as="sourcePoint" />
            <mxPoint x="180" y="110" as="targetPoint" />
          </mxGeometry>
        </mxCell>
        <mxCell id="H8q-ksh3ANIPmMwhaufp-15" value="" style="endArrow=none;html=1;exitX=1;exitY=0.3333333333333333;exitDx=0;exitDy=0;exitPerimeter=0;" edge="1" parent="1" source="H8q-ksh3ANIPmMwhaufp-1">
          <mxGeometry width="50" height="50" relative="1" as="geometry">
            <mxPoint x="130" y="200" as="sourcePoint" />
            <mxPoint x="180" y="150" as="targetPoint" />
          </mxGeometry>
        </mxCell>
        <mxCell id="H8q-ksh3ANIPmMwhaufp-16" value="" style="endArrow=none;html=1;exitX=1;exitY=0.3333333333333333;exitDx=0;exitDy=0;exitPerimeter=0;entryX=0;entryY=0.5;entryDx=0;entryDy=0;" edge="1" parent="1" source="H8q-ksh3ANIPmMwhaufp-1" target="H8q-ksh3ANIPmMwhaufp-7">
          <mxGeometry width="50" height="50" relative="1" as="geometry">
            <mxPoint x="130" y="240" as="sourcePoint" />
            <mxPoint x="180" y="190" as="targetPoint" />
          </mxGeometry>
        </mxCell>
        <mxCell id="H8q-ksh3ANIPmMwhaufp-17" value="" style="endArrow=none;html=1;entryX=0;entryY=0.5;entryDx=0;entryDy=0;" edge="1" parent="1" target="H8q-ksh3ANIPmMwhaufp-13">
          <mxGeometry width="50" height="50" relative="1" as="geometry">
            <mxPoint x="80" y="390" as="sourcePoint" />
            <mxPoint x="130" y="340" as="targetPoint" />
          </mxGeometry>
        </mxCell>
        <mxCell id="H8q-ksh3ANIPmMwhaufp-18" value="" style="endArrow=classic;html=1;entryX=0;entryY=0.5;entryDx=0;entryDy=0;exitX=1;exitY=0.5;exitDx=0;exitDy=0;" edge="1" parent="1" source="H8q-ksh3ANIPmMwhaufp-4" target="H8q-ksh3ANIPmMwhaufp-19">
          <mxGeometry width="50" height="50" relative="1" as="geometry">
            <mxPoint x="300" y="60" as="sourcePoint" />
            <mxPoint x="450" y="30" as="targetPoint" />
          </mxGeometry>
        </mxCell>
        <mxCell id="H8q-ksh3ANIPmMwhaufp-19" value="Create task" style="ellipse;whiteSpace=wrap;html=1;" vertex="1" parent="1">
          <mxGeometry x="450" y="10" width="120" height="30" as="geometry" />
        </mxCell>
        <mxCell id="H8q-ksh3ANIPmMwhaufp-20" value="Assign task" style="ellipse;whiteSpace=wrap;html=1;" vertex="1" parent="1">
          <mxGeometry x="450" y="50" width="120" height="30" as="geometry" />
        </mxCell>
        <mxCell id="H8q-ksh3ANIPmMwhaufp-21" value="Set precedence" style="ellipse;whiteSpace=wrap;html=1;" vertex="1" parent="1">
          <mxGeometry x="450" y="97" width="120" height="30" as="geometry" />
        </mxCell>
        <mxCell id="H8q-ksh3ANIPmMwhaufp-22" value="Update task" style="ellipse;whiteSpace=wrap;html=1;" vertex="1" parent="1">
          <mxGeometry x="450" y="140" width="120" height="30" as="geometry" />
        </mxCell>
        <mxCell id="H8q-ksh3ANIPmMwhaufp-23" value="Delete Task" style="ellipse;whiteSpace=wrap;html=1;" vertex="1" parent="1">
          <mxGeometry x="450" y="180" width="120" height="30" as="geometry" />
        </mxCell>
        <mxCell id="H8q-ksh3ANIPmMwhaufp-24" value="" style="endArrow=classic;html=1;exitX=1;exitY=0.5;exitDx=0;exitDy=0;" edge="1" parent="1" source="H8q-ksh3ANIPmMwhaufp-4">
          <mxGeometry width="50" height="50" relative="1" as="geometry">
            <mxPoint x="400" y="110" as="sourcePoint" />
            <mxPoint x="450" y="65" as="targetPoint" />
          </mxGeometry>
        </mxCell>
        <mxCell id="H8q-ksh3ANIPmMwhaufp-25" value="" style="endArrow=classic;html=1;exitX=1;exitY=0.5;exitDx=0;exitDy=0;entryX=0;entryY=0.5;entryDx=0;entryDy=0;" edge="1" parent="1" source="H8q-ksh3ANIPmMwhaufp-4" target="H8q-ksh3ANIPmMwhaufp-21">
          <mxGeometry width="50" height="50" relative="1" as="geometry">
            <mxPoint x="400" y="165" as="sourcePoint" />
            <mxPoint x="450" y="115" as="targetPoint" />
          </mxGeometry>
        </mxCell>
        <mxCell id="H8q-ksh3ANIPmMwhaufp-26" value="" style="endArrow=classic;html=1;exitX=1;exitY=0.5;exitDx=0;exitDy=0;entryX=0;entryY=0.5;entryDx=0;entryDy=0;" edge="1" parent="1" source="H8q-ksh3ANIPmMwhaufp-4" target="H8q-ksh3ANIPmMwhaufp-22">
          <mxGeometry width="50" height="50" relative="1" as="geometry">
            <mxPoint x="390" y="200" as="sourcePoint" />
            <mxPoint x="460" y="160" as="targetPoint" />
          </mxGeometry>
        </mxCell>
        <mxCell id="H8q-ksh3ANIPmMwhaufp-27" value="" style="endArrow=classic;html=1;exitX=1;exitY=0.5;exitDx=0;exitDy=0;entryX=0;entryY=0.5;entryDx=0;entryDy=0;" edge="1" parent="1" source="H8q-ksh3ANIPmMwhaufp-4" target="H8q-ksh3ANIPmMwhaufp-23">
          <mxGeometry width="50" height="50" relative="1" as="geometry">
            <mxPoint x="400" y="250" as="sourcePoint" />
            <mxPoint x="450" y="200" as="targetPoint" />
          </mxGeometry>
        </mxCell>
        <mxCell id="H8q-ksh3ANIPmMwhaufp-28" value="Create subtask" style="ellipse;whiteSpace=wrap;html=1;" vertex="1" parent="1">
          <mxGeometry x="460" y="227.5" width="110" height="30" as="geometry" />
        </mxCell>
        <mxCell id="H8q-ksh3ANIPmMwhaufp-29" value="Assign subtask" style="ellipse;whiteSpace=wrap;html=1;" vertex="1" parent="1">
          <mxGeometry x="450" y="270" width="120" height="30" as="geometry" />
        </mxCell>
        <mxCell id="H8q-ksh3ANIPmMwhaufp-30" value="Delete subtask" style="ellipse;whiteSpace=wrap;html=1;" vertex="1" parent="1">
          <mxGeometry x="450" y="320" width="120" height="30" as="geometry" />
        </mxCell>
        <mxCell id="H8q-ksh3ANIPmMwhaufp-31" value="Update subtask" style="ellipse;whiteSpace=wrap;html=1;" vertex="1" parent="1">
          <mxGeometry x="450" y="364" width="120" height="30" as="geometry" />
        </mxCell>
        <mxCell id="H8q-ksh3ANIPmMwhaufp-32" value="" style="endArrow=classic;html=1;exitX=1;exitY=0.5;exitDx=0;exitDy=0;entryX=0;entryY=0.5;entryDx=0;entryDy=0;" edge="1" parent="1" source="H8q-ksh3ANIPmMwhaufp-9" target="H8q-ksh3ANIPmMwhaufp-28">
          <mxGeometry width="50" height="50" relative="1" as="geometry">
            <mxPoint x="400" y="350" as="sourcePoint" />
            <mxPoint x="440" y="250" as="targetPoint" />
          </mxGeometry>
        </mxCell>
        <mxCell id="H8q-ksh3ANIPmMwhaufp-33" value="" style="endArrow=classic;html=1;exitX=1;exitY=0.5;exitDx=0;exitDy=0;entryX=0;entryY=0.5;entryDx=0;entryDy=0;" edge="1" parent="1" source="H8q-ksh3ANIPmMwhaufp-9" target="H8q-ksh3ANIPmMwhaufp-29">
          <mxGeometry width="50" height="50" relative="1" as="geometry">
            <mxPoint x="300" y="270" as="sourcePoint" />
            <mxPoint x="450" y="290" as="targetPoint" />
          </mxGeometry>
        </mxCell>
        <mxCell id="H8q-ksh3ANIPmMwhaufp-34" value="" style="endArrow=classic;html=1;exitX=1;exitY=0.5;exitDx=0;exitDy=0;entryX=0;entryY=0.5;entryDx=0;entryDy=0;" edge="1" parent="1" source="H8q-ksh3ANIPmMwhaufp-9" target="H8q-ksh3ANIPmMwhaufp-30">
          <mxGeometry width="50" height="50" relative="1" as="geometry">
            <mxPoint x="400" y="440" as="sourcePoint" />
            <mxPoint x="450" y="390" as="targetPoint" />
          </mxGeometry>
        </mxCell>
        <mxCell id="H8q-ksh3ANIPmMwhaufp-35" value="" style="endArrow=classic;html=1;exitX=1;exitY=0.5;exitDx=0;exitDy=0;entryX=0;entryY=0.5;entryDx=0;entryDy=0;" edge="1" parent="1" source="H8q-ksh3ANIPmMwhaufp-9" target="H8q-ksh3ANIPmMwhaufp-31">
          <mxGeometry width="50" height="50" relative="1" as="geometry">
            <mxPoint x="400" y="490" as="sourcePoint" />
            <mxPoint x="450" y="440" as="targetPoint" />
          </mxGeometry>
        </mxCell>
      </root>
    </mxGraphModel>
  </diagram>
</mxfile>
